<svg width="353" height="481" viewBox="0 0 353 481" fill="none" xmlns="http://www.w3.org/2000/svg">
<mask id="path-1-inside-1" fill="white">
<path d="M350.61 207.775C347.204 198.217 338.147 191.842 328 191.86C317.863 191.891 308.842 198.298 305.474 207.86H256V175.86H288C292.417 175.861 295.999 172.281 296 167.864C296 167.863 296 167.861 296 167.86V134.386C308.497 129.968 315.047 116.256 310.629 103.758C306.211 91.261 292.499 84.711 280.001 89.129C267.503 93.547 260.954 107.259 265.372 119.757C267.788 126.592 273.165 131.969 280 134.386V159.861H256V143.861C256.001 139.444 252.421 135.862 248.004 135.861C248.003 135.861 248.001 135.861 248 135.861H232V94.385C244.497 89.967 251.047 76.255 246.629 63.757C242.211 51.26 228.499 44.71 216.001 49.128C203.504 53.546 196.954 67.258 201.372 79.756C203.788 86.591 209.165 91.968 216 94.385V135.86H184V8.14099C184.001 3.72399 180.421 0.141991 176.004 0.140991C176.003 0.140991 176.001 0.140991 176 0.140991C77.309 0.140991 0 71.594 0 162.805C0 206.133 17.199 263.5 44.891 312.508C49.864 321.305 56.352 330.555 63.219 340.352C77.74 361.051 93.9 384.328 95.657 404.59C89.507 408.937 85.908 416.048 86.047 423.578C86.07 428.987 87.938 434.227 91.342 438.431C86.607 443.103 83.959 449.489 84 456.141C84.014 469.39 94.751 480.127 108 480.141H244C257.339 480.058 268.086 469.178 268.003 455.839C268.002 455.752 268.001 455.665 268 455.578C267.995 449.071 265.336 442.848 260.637 438.346C264.085 433.98 265.958 428.578 265.953 423.015C265.929 410.344 255.638 400.092 242.967 400.116C242.629 400.117 242.291 400.125 241.953 400.14H184V247.859H200V271.859C199.999 276.276 203.579 279.858 207.996 279.859C207.997 279.859 207.999 279.859 208 279.859H232V289.333C219.503 293.751 212.954 307.464 217.373 319.96C221.792 332.456 235.504 339.006 248 334.587C260.497 330.169 267.046 316.456 262.627 303.96C260.211 297.125 254.834 291.749 248 289.333V271.859C248.001 267.442 244.421 263.86 240.004 263.859C240.003 263.859 240.001 263.859 240 263.859H216V247.859H248C252.417 247.86 255.999 244.28 256 239.863C256 239.862 256 239.86 256 239.859V223.859H305.475C309.917 236.323 323.621 242.826 336.085 238.384C348.548 233.943 355.051 220.239 350.61 207.775ZM288 103.859C292.418 103.859 296 107.441 296 111.859C296 116.277 292.418 119.859 288 119.859C283.582 119.859 280 116.277 280 111.859C280.004 107.443 283.584 103.864 288 103.859ZM76.32 331.164C69.679 321.695 63.41 312.758 58.82 304.633C32.809 258.594 16 202.922 16 162.805C16 83.024 82.137 20.008 168 16.313V72.201C165.876 72.36 163.709 72.553 161.391 72.837C157.995 73.25 155.238 75.778 154.532 79.126L152.094 90.72C150.086 91.197 148.084 91.736 146.086 92.337L138.113 83.446C135.829 80.891 132.171 80.077 129.019 81.423C120.065 85.284 111.614 90.219 103.851 96.118C101.118 98.178 99.999 101.749 101.066 105.001L104.738 116.189C103.226 117.611 101.754 119.087 100.328 120.595L89.152 116.923C85.901 115.87 82.339 116.985 80.269 119.704C74.362 127.469 69.423 135.924 65.562 144.884C64.218 148.036 65.032 151.693 67.585 153.978L76.48 161.947C75.882 163.924 75.347 165.905 74.875 167.892L62.434 170.376C58.694 171.122 56.001 174.406 56.001 178.22V205.5C56.001 209.314 58.694 212.598 62.435 213.344L74.876 215.828C75.349 217.812 75.884 219.794 76.481 221.773L67.583 229.742C65.033 232.029 64.22 235.684 65.56 238.836C69.422 247.795 74.36 256.251 80.267 264.016C82.335 266.738 85.899 267.853 89.15 266.797L100.326 263.125C101.756 264.633 103.224 266.109 104.736 267.531L101.064 278.703C99.998 281.954 101.115 285.523 103.845 287.586C111.608 293.494 120.063 298.434 129.021 302.297C132.173 303.635 135.827 302.822 138.115 300.274L146.088 291.383C148.084 291.985 150.087 292.524 152.096 293L154.53 304.586C155.233 307.937 157.991 310.469 161.389 310.883C163.71 311.167 165.878 311.36 168.002 311.519V400.141H111.312C108.041 376.564 91.341 352.581 76.32 331.164ZM104 191.859C104.051 228.503 131.587 259.278 168 263.387V290.898L166.676 284.601C166.008 281.412 163.473 278.946 160.266 278.367C155.524 277.504 150.862 276.247 146.329 274.609C145.46 274.3 144.544 274.142 143.622 274.14C141.348 274.14 139.181 275.109 137.665 276.804L130.142 285.195C125.973 283.112 121.95 280.749 118.099 278.125L121.572 267.555C122.589 264.457 121.626 261.053 119.138 258.946C115.449 255.823 112.024 252.4 108.9 248.712C106.787 246.241 103.394 245.285 100.302 246.29L89.736 249.767C87.11 245.915 84.747 241.89 82.662 237.72L91.06 230.197C93.482 228.022 94.348 224.598 93.251 221.533C91.615 216.999 90.358 212.337 89.493 207.596C88.909 204.363 86.407 201.816 83.184 201.174L72 198.938V184.782L83.184 182.548C86.406 181.907 88.909 179.359 89.493 176.126C90.358 171.382 91.615 166.717 93.25 162.18C94.349 159.114 93.481 155.689 91.055 153.516L82.664 146C84.751 141.832 87.113 137.807 89.734 133.953L100.304 137.43C103.396 138.434 106.788 137.479 108.902 135.008C112.034 131.317 115.461 127.887 119.148 124.75C121.626 122.647 122.584 119.252 121.57 116.164L118.101 105.594C121.952 102.971 125.974 100.609 130.14 98.524L137.663 106.915C139.839 109.335 143.261 110.202 146.327 109.11C150.86 107.471 155.522 106.214 160.264 105.352C163.47 104.776 166.005 102.313 166.674 99.125L168 92.828V120.331C131.587 124.441 104.051 155.215 104 191.859ZM168 136.498V247.22C137.425 242.843 116.187 214.508 120.564 183.933C124.085 159.341 143.407 140.019 168 136.498ZM252 456.141C251.996 460.557 248.416 464.137 244 464.141H108C103.501 464.065 99.915 460.356 99.991 455.857C99.993 455.764 99.996 455.671 100 455.578C100.004 451.162 103.584 447.582 108 447.578H244C248.499 447.654 252.085 451.363 252.009 455.862C252.008 455.955 252.005 456.048 252 456.141ZM241.953 416.141C245.983 415.769 249.552 418.736 249.923 422.766C249.948 423.036 249.958 423.307 249.953 423.578C249.949 427.994 246.369 431.574 241.953 431.578H110.047C105.548 431.502 101.962 427.794 102.038 423.294C102.04 423.201 102.043 423.108 102.047 423.015C102.218 419.027 105.59 415.933 109.578 416.105C109.735 416.112 109.891 416.124 110.047 416.14H241.953V416.141ZM240 303.859C244.418 303.859 248 307.441 248 311.859C248 316.277 244.418 319.859 240 319.859C235.582 319.859 232 316.277 232 311.859C232.004 307.443 235.584 303.864 240 303.859ZM224 63.859C228.418 63.859 232 67.441 232 71.859C232 76.277 228.418 79.859 224 79.859C219.582 79.859 216 76.277 216 71.859C216.004 67.443 219.584 63.864 224 63.859ZM240 231.859H184V151.859H240V231.859ZM328 223.859C323.582 223.859 320 220.277 320 215.859C320 211.441 323.582 207.859 328 207.859C332.418 207.859 336 211.441 336 215.859C335.996 220.276 332.416 223.855 328 223.859Z"/>
</mask>
<path d="M350.61 207.775C347.204 198.217 338.147 191.842 328 191.86C317.863 191.891 308.842 198.298 305.474 207.86H256V175.86H288C292.417 175.861 295.999 172.281 296 167.864C296 167.863 296 167.861 296 167.86V134.386C308.497 129.968 315.047 116.256 310.629 103.758C306.211 91.261 292.499 84.711 280.001 89.129C267.503 93.547 260.954 107.259 265.372 119.757C267.788 126.592 273.165 131.969 280 134.386V159.861H256V143.861C256.001 139.444 252.421 135.862 248.004 135.861C248.003 135.861 248.001 135.861 248 135.861H232V94.385C244.497 89.967 251.047 76.255 246.629 63.757C242.211 51.26 228.499 44.71 216.001 49.128C203.504 53.546 196.954 67.258 201.372 79.756C203.788 86.591 209.165 91.968 216 94.385V135.86H184V8.14099C184.001 3.72399 180.421 0.141991 176.004 0.140991C176.003 0.140991 176.001 0.140991 176 0.140991C77.309 0.140991 0 71.594 0 162.805C0 206.133 17.199 263.5 44.891 312.508C49.864 321.305 56.352 330.555 63.219 340.352C77.74 361.051 93.9 384.328 95.657 404.59C89.507 408.937 85.908 416.048 86.047 423.578C86.07 428.987 87.938 434.227 91.342 438.431C86.607 443.103 83.959 449.489 84 456.141C84.014 469.39 94.751 480.127 108 480.141H244C257.339 480.058 268.086 469.178 268.003 455.839C268.002 455.752 268.001 455.665 268 455.578C267.995 449.071 265.336 442.848 260.637 438.346C264.085 433.98 265.958 428.578 265.953 423.015C265.929 410.344 255.638 400.092 242.967 400.116C242.629 400.117 242.291 400.125 241.953 400.14H184V247.859H200V271.859C199.999 276.276 203.579 279.858 207.996 279.859C207.997 279.859 207.999 279.859 208 279.859H232V289.333C219.503 293.751 212.954 307.464 217.373 319.96C221.792 332.456 235.504 339.006 248 334.587C260.497 330.169 267.046 316.456 262.627 303.96C260.211 297.125 254.834 291.749 248 289.333V271.859C248.001 267.442 244.421 263.86 240.004 263.859C240.003 263.859 240.001 263.859 240 263.859H216V247.859H248C252.417 247.86 255.999 244.28 256 239.863C256 239.862 256 239.86 256 239.859V223.859H305.475C309.917 236.323 323.621 242.826 336.085 238.384C348.548 233.943 355.051 220.239 350.61 207.775ZM288 103.859C292.418 103.859 296 107.441 296 111.859C296 116.277 292.418 119.859 288 119.859C283.582 119.859 280 116.277 280 111.859C280.004 107.443 283.584 103.864 288 103.859ZM76.32 331.164C69.679 321.695 63.41 312.758 58.82 304.633C32.809 258.594 16 202.922 16 162.805C16 83.024 82.137 20.008 168 16.313V72.201C165.876 72.36 163.709 72.553 161.391 72.837C157.995 73.25 155.238 75.778 154.532 79.126L152.094 90.72C150.086 91.197 148.084 91.736 146.086 92.337L138.113 83.446C135.829 80.891 132.171 80.077 129.019 81.423C120.065 85.284 111.614 90.219 103.851 96.118C101.118 98.178 99.999 101.749 101.066 105.001L104.738 116.189C103.226 117.611 101.754 119.087 100.328 120.595L89.152 116.923C85.901 115.87 82.339 116.985 80.269 119.704C74.362 127.469 69.423 135.924 65.562 144.884C64.218 148.036 65.032 151.693 67.585 153.978L76.48 161.947C75.882 163.924 75.347 165.905 74.875 167.892L62.434 170.376C58.694 171.122 56.001 174.406 56.001 178.22V205.5C56.001 209.314 58.694 212.598 62.435 213.344L74.876 215.828C75.349 217.812 75.884 219.794 76.481 221.773L67.583 229.742C65.033 232.029 64.22 235.684 65.56 238.836C69.422 247.795 74.36 256.251 80.267 264.016C82.335 266.738 85.899 267.853 89.15 266.797L100.326 263.125C101.756 264.633 103.224 266.109 104.736 267.531L101.064 278.703C99.998 281.954 101.115 285.523 103.845 287.586C111.608 293.494 120.063 298.434 129.021 302.297C132.173 303.635 135.827 302.822 138.115 300.274L146.088 291.383C148.084 291.985 150.087 292.524 152.096 293L154.53 304.586C155.233 307.937 157.991 310.469 161.389 310.883C163.71 311.167 165.878 311.36 168.002 311.519V400.141H111.312C108.041 376.564 91.341 352.581 76.32 331.164ZM104 191.859C104.051 228.503 131.587 259.278 168 263.387V290.898L166.676 284.601C166.008 281.412 163.473 278.946 160.266 278.367C155.524 277.504 150.862 276.247 146.329 274.609C145.46 274.3 144.544 274.142 143.622 274.14C141.348 274.14 139.181 275.109 137.665 276.804L130.142 285.195C125.973 283.112 121.95 280.749 118.099 278.125L121.572 267.555C122.589 264.457 121.626 261.053 119.138 258.946C115.449 255.823 112.024 252.4 108.9 248.712C106.787 246.241 103.394 245.285 100.302 246.29L89.736 249.767C87.11 245.915 84.747 241.89 82.662 237.72L91.06 230.197C93.482 228.022 94.348 224.598 93.251 221.533C91.615 216.999 90.358 212.337 89.493 207.596C88.909 204.363 86.407 201.816 83.184 201.174L72 198.938V184.782L83.184 182.548C86.406 181.907 88.909 179.359 89.493 176.126C90.358 171.382 91.615 166.717 93.25 162.18C94.349 159.114 93.481 155.689 91.055 153.516L82.664 146C84.751 141.832 87.113 137.807 89.734 133.953L100.304 137.43C103.396 138.434 106.788 137.479 108.902 135.008C112.034 131.317 115.461 127.887 119.148 124.75C121.626 122.647 122.584 119.252 121.57 116.164L118.101 105.594C121.952 102.971 125.974 100.609 130.14 98.524L137.663 106.915C139.839 109.335 143.261 110.202 146.327 109.11C150.86 107.471 155.522 106.214 160.264 105.352C163.47 104.776 166.005 102.313 166.674 99.125L168 92.828V120.331C131.587 124.441 104.051 155.215 104 191.859ZM168 136.498V247.22C137.425 242.843 116.187 214.508 120.564 183.933C124.085 159.341 143.407 140.019 168 136.498ZM252 456.141C251.996 460.557 248.416 464.137 244 464.141H108C103.501 464.065 99.915 460.356 99.991 455.857C99.993 455.764 99.996 455.671 100 455.578C100.004 451.162 103.584 447.582 108 447.578H244C248.499 447.654 252.085 451.363 252.009 455.862C252.008 455.955 252.005 456.048 252 456.141ZM241.953 416.141C245.983 415.769 249.552 418.736 249.923 422.766C249.948 423.036 249.958 423.307 249.953 423.578C249.949 427.994 246.369 431.574 241.953 431.578H110.047C105.548 431.502 101.962 427.794 102.038 423.294C102.04 423.201 102.043 423.108 102.047 423.015C102.218 419.027 105.59 415.933 109.578 416.105C109.735 416.112 109.891 416.124 110.047 416.14H241.953V416.141ZM240 303.859C244.418 303.859 248 307.441 248 311.859C248 316.277 244.418 319.859 240 319.859C235.582 319.859 232 316.277 232 311.859C232.004 307.443 235.584 303.864 240 303.859ZM224 63.859C228.418 63.859 232 67.441 232 71.859C232 76.277 228.418 79.859 224 79.859C219.582 79.859 216 76.277 216 71.859C216.004 67.443 219.584 63.864 224 63.859ZM240 231.859H184V151.859H240V231.859ZM328 223.859C323.582 223.859 320 220.277 320 215.859C320 211.441 323.582 207.859 328 207.859C332.418 207.859 336 211.441 336 215.859C335.996 220.276 332.416 223.855 328 223.859Z" fill="#FFFEFE" stroke="black" stroke-width="10" mask="url(#path-1-inside-1)"/>
<path d="M253.152 365.828C250.331 370.872 247.835 376.091 245.68 381.453L260.555 387.344C262.461 382.614 264.667 378.011 267.16 373.563L253.152 365.828Z" fill="#30FF0E"/>
<path d="M271.148 337.648C268.004 342.164 264.867 346.757 261.867 351.398L275.297 360.086C278.203 355.602 281.238 351.164 284.281 346.789L271.148 337.648Z" fill="#08CE7B"/>
<path d="M293 329.933L283.964 323.658C286.107 320.544 288.178 317.476 290.119 314.469L299.43 320.326C297.418 323.453 295.257 326.658 293 329.933Z" stroke="black" stroke-width="5"/>
<path d="M304.359 283.148C302.066 287.945 299.669 292.687 297.168 297.375L311.277 304.922C313.894 300.024 316.401 295.063 318.797 290.039L304.359 283.148Z" fill="#020000"/>
<path d="M316.855 253.789C314.996 258.734 313.015 263.687 310.921 268.601L325.648 274.867C327.828 269.734 329.889 264.583 331.832 259.414L316.855 253.789Z" fill="#F16313"/>
<path d="M351.992 161.211L335.992 161.336L336 162.805C336 167.266 335.793 172.008 335.379 176.883L351.324 178.227C351.773 172.907 352 167.719 352 162.805L351.992 161.211Z" fill="#D21B1B"/>
<path d="M347.918 127.156L332.34 130.797C333.509 135.798 334.398 140.861 335.004 145.961L350.895 144.07C350.216 138.382 349.222 132.735 347.918 127.156Z" fill="black"/>
<path d="M336.418 94.828L322.035 101.828C324.284 106.449 326.277 111.191 328.004 116.031L343.074 110.672C341.152 105.271 338.93 99.981 336.418 94.828Z" fill="black"/>
<path d="M314.989 86.3259C312.703 82.8006 310.267 79.3753 307.687 76.0585L317.87 67.9711C320.737 71.6543 323.443 75.4613 325.977 79.381L314.989 86.3259Z" stroke="black" stroke-width="3"/>
<path d="M294.141 41.445L283.946 53.773C287.923 57.063 291.729 60.555 295.348 64.234L306.754 53.015C302.749 48.946 298.539 45.085 294.141 41.445Z" fill="#F410DC"/>
<path d="M265.836 22.375L258.227 36.453C262.797 38.922 267.27 41.625 271.52 44.484L280.45 31.203C275.773 28.063 270.859 25.094 265.836 22.375Z" fill="#A20BFF"/>
<path d="M234.477 9.10199L229.633 24.352C234.617 25.93 239.52 27.743 244.211 29.735L250.469 15.016C245.317 12.82 239.934 10.836 234.477 9.10199Z" fill="#0D31EB"/>
<path d="M216.257 5.83519L213.445 18.5296C209.325 17.6527 205.124 16.9209 200.917 16.3431L202.58 3.44526C207.173 4.07993 211.762 4.88123 216.257 5.83519Z" stroke="black" stroke-width="3"/>
</svg>
