<svg width="139" height="229" viewBox="0 0 539 329" fill="none" xmlns="http://www.w3.org/2000/svg">
<path d="M10.0611 79.3168L1.4568 36.2897C-2.64172 15.7943 14.9494 -2.50587 35.5907 0.780004L512.786 76.7447C531.175 79.672 542.483 98.4694 536.453 116.086L470.57 308.577C466.418 320.707 455.018 328.858 442.197 328.862L97.4378 328.991C83.7381 328.996 71.7752 319.72 68.3688 306.451L10.0611 79.3168Z" fill="#F7E89C"/>
<path d="M10.0611 79.3168L1.4568 36.2897C-2.64172 15.7943 14.9494 -2.50587 35.5907 0.780004L512.786 76.7447C531.175 79.672 542.483 98.4694 536.453 116.086L470.57 308.577C466.418 320.707 455.018 328.858 442.197 328.862L97.4378 328.991C83.7381 328.996 71.7752 319.72 68.3688 306.451L10.0611 79.3168Z" fill="url(#paint0_linear)"/>
<path d="M127.075 264.497V299.411H132.802C138.23 299.411 141.91 298.008 143.842 295.202C145.774 292.396 146.74 287.98 146.74 281.954C146.74 275.928 145.774 271.512 143.842 268.706C141.91 265.9 138.23 264.497 132.802 264.497H127.075ZM132.319 305H120.451V258.908H132.319C138.207 258.908 142.301 259.529 144.601 260.771C150.489 263.761 153.433 270.845 153.433 282.023C153.433 293.155 150.489 300.216 144.601 303.206C142.347 304.402 138.253 305 132.319 305ZM178.159 305.897C173.007 305.897 169.166 304.149 166.636 300.653C164.152 297.111 162.91 292.695 162.91 287.405C162.91 282.069 164.244 277.745 166.912 274.433C169.58 271.075 173.237 269.396 177.883 269.396C181.793 269.396 184.76 270.5 186.784 272.708C188.854 274.87 189.889 277.745 189.889 281.333C189.889 282.943 189.544 285.013 188.854 287.543H168.568C168.66 291.453 169.511 294.627 171.121 297.065C172.731 299.503 175.123 300.722 178.297 300.722C181.517 300.722 184.553 300.078 187.405 298.79L188.992 303.068C185.68 304.954 182.069 305.897 178.159 305.897ZM184.231 282.506C184.231 280.022 183.725 278.067 182.713 276.641C181.701 275.215 180.298 274.502 178.504 274.502C176.71 274.502 175.215 274.824 174.019 275.468C172.869 276.066 171.972 276.848 171.328 277.814C170.224 279.654 169.534 281.356 169.258 282.92L184.231 283.058V282.506ZM219.33 270.155H225.747L214.569 305H207.6L196.491 270.086H203.184L211.119 298.79L219.33 270.155ZM247.423 305.897C242.271 305.897 238.43 304.149 235.9 300.653C233.416 297.111 232.174 292.695 232.174 287.405C232.174 282.069 233.508 277.745 236.176 274.433C238.844 271.075 242.501 269.396 247.147 269.396C251.057 269.396 254.024 270.5 256.048 272.708C258.118 274.87 259.153 277.745 259.153 281.333C259.153 282.943 258.808 285.013 258.118 287.543H237.832C237.924 291.453 238.775 294.627 240.385 297.065C241.995 299.503 244.387 300.722 247.561 300.722C250.781 300.722 253.817 300.078 256.669 298.79L258.256 303.068C254.944 304.954 251.333 305.897 247.423 305.897ZM253.495 282.506C253.495 280.022 252.989 278.067 251.977 276.641C250.965 275.215 249.562 274.502 247.768 274.502C245.974 274.502 244.479 274.824 243.283 275.468C242.133 276.066 241.236 276.848 240.592 277.814C239.488 279.654 238.798 281.356 238.522 282.92L253.495 283.058V282.506ZM269.475 256.7H275.754V297.962C275.754 299.756 276.582 300.653 278.238 300.653C279.526 300.653 280.883 300.423 282.309 299.963L283.344 304.517C281.458 305.437 279.135 305.897 276.375 305.897C271.775 305.897 269.475 303.275 269.475 298.031V256.7ZM313.678 301.481C311.01 304.425 307.514 305.897 303.19 305.897C298.866 305.897 295.416 304.448 292.84 301.55C290.264 298.652 288.976 294.052 288.976 287.75C288.976 281.402 290.31 276.756 292.978 273.812C295.692 270.868 299.211 269.396 303.535 269.396C307.859 269.396 311.286 270.845 313.816 273.743C316.392 276.641 317.68 281.264 317.68 287.612C317.68 293.914 316.346 298.537 313.678 301.481ZM303.397 274.502C298.015 274.502 295.324 278.895 295.324 287.681C295.324 296.421 297.992 300.791 303.328 300.791C305.536 300.791 307.422 299.756 308.986 297.686C310.55 295.616 311.332 292.166 311.332 287.336C311.332 282.506 310.642 279.171 309.262 277.331C307.928 275.445 305.973 274.502 303.397 274.502ZM341.127 300.653C346.877 300.653 349.752 296.076 349.752 286.922C349.752 278.734 347.429 274.64 342.783 274.64C340.161 274.64 337.401 275.652 334.503 277.676V299.687C336.803 300.331 339.011 300.653 341.127 300.653ZM334.02 272.915C337.056 270.569 340.46 269.396 344.232 269.396C348.004 269.396 350.948 270.96 353.064 274.088C355.18 277.216 356.238 281.471 356.238 286.853C356.238 299.549 351.178 305.897 341.058 305.897C338.666 305.897 336.481 305.437 334.503 304.517V319.766L328.293 320.456V270.017H333.537L334.02 272.915ZM380.359 305.897C375.207 305.897 371.366 304.149 368.836 300.653C366.352 297.111 365.11 292.695 365.11 287.405C365.11 282.069 366.444 277.745 369.112 274.433C371.78 271.075 375.437 269.396 380.083 269.396C383.993 269.396 386.96 270.5 388.984 272.708C391.054 274.87 392.089 277.745 392.089 281.333C392.089 282.943 391.744 285.013 391.054 287.543H370.768C370.86 291.453 371.711 294.627 373.321 297.065C374.931 299.503 377.323 300.722 380.497 300.722C383.717 300.722 386.753 300.078 389.605 298.79L391.192 303.068C387.88 304.954 384.269 305.897 380.359 305.897ZM386.431 282.506C386.431 280.022 385.925 278.067 384.913 276.641C383.901 275.215 382.498 274.502 380.704 274.502C378.91 274.502 377.415 274.824 376.219 275.468C375.069 276.066 374.172 276.848 373.528 277.814C372.424 279.654 371.734 281.356 371.458 282.92L386.431 283.058V282.506ZM408.551 305H402.341V270.086H407.516L408.206 275.261C409.034 273.881 410.391 272.57 412.277 271.328C414.209 270.04 416.394 269.396 418.832 269.396C420.166 269.396 421.178 269.511 421.868 269.741L420.626 274.709C420.212 274.663 419.614 274.64 418.832 274.64C413.818 274.64 410.391 276.457 408.551 280.091V305Z" fill="#583B3B"/>
<path d="M89.6 86.08C92.32 87.84 93.68 90.54 93.68 94.18C93.68 97.82 92.38 100.44 89.78 102.04C92.1 103.08 93.7 104.36 94.58 105.88C95.5 107.36 95.96 109.32 95.96 111.76C95.96 115.56 94.8 118.56 92.48 120.76C90.2 122.92 86.72 124 82.04 124H68.84V83.92H77.6C80.68 83.92 83.1 84.06 84.86 84.34C86.62 84.58 88.2 85.16 89.6 86.08ZM77.42 90.28V99.46H81.44C84.04 99.26 85.34 97.64 85.34 94.6C85.34 92.36 84.46 91.02 82.7 90.58C81.9 90.38 80.56 90.28 78.68 90.28H77.42ZM81.02 117.16C85.42 117.16 87.62 115.28 87.62 111.52C87.62 109.32 86.98 107.82 85.7 107.02C84.46 106.18 82.66 105.76 80.3 105.76H77.42V117.16H81.02ZM116.41 99.4C113.13 99.4 110.83 100.34 109.51 102.22V124H101.11V93.22H108.07L108.73 97.12C111.05 94.08 114.01 92.56 117.61 92.56C118.61 92.56 119.53 92.66 120.37 92.86L118.99 99.76C118.11 99.52 117.25 99.4 116.41 99.4ZM129.449 109.48C129.529 115.48 132.169 118.48 137.369 118.48C139.809 118.48 142.229 118.02 144.629 117.1L146.069 122.8C142.989 124.12 139.569 124.78 135.809 124.78C126.329 124.78 121.589 119.2 121.589 108.04C121.589 103.64 122.769 99.98 125.129 97.06C127.489 94.14 130.889 92.68 135.329 92.68C138.889 92.68 141.629 93.64 143.549 95.56C145.509 97.44 146.489 100.08 146.489 103.48C146.489 105.48 146.229 107.48 145.709 109.48H129.449ZM139.769 104.92V104.56C139.769 100.6 138.369 98.62 135.569 98.62C132.209 98.62 130.189 100.72 129.509 104.92H139.769ZM169.198 92.68C172.678 92.68 175.038 93.58 176.278 95.38C177.558 97.14 178.198 99.66 178.198 102.94V124H169.798V104.44C169.798 102.88 169.538 101.68 169.018 100.84C168.538 99.96 167.338 99.52 165.418 99.52C163.498 99.52 161.758 100.26 160.198 101.74V124H151.618V93.22H158.698L159.418 96.64C160.578 95.56 162.038 94.64 163.798 93.88C165.598 93.08 167.398 92.68 169.198 92.68ZM183.231 109.36C183.231 98.24 187.571 92.68 196.251 92.68C198.451 92.68 200.231 93.04 201.591 93.76V81.4H210.051V124.42H203.091L202.611 122.14C200.371 123.74 197.711 124.54 194.631 124.54C190.871 124.54 188.031 123.18 186.111 120.46C184.191 117.74 183.231 114.04 183.231 109.36ZM197.091 99.28C193.211 99.28 191.271 102.58 191.271 109.18C191.271 115.22 193.071 118.24 196.671 118.24C198.511 118.24 200.171 117.78 201.651 116.86V100.12C200.331 99.56 198.811 99.28 197.091 99.28ZM241.922 108.7C241.922 114.26 240.682 118.34 238.202 120.94C235.722 123.5 232.462 124.78 228.422 124.78C224.382 124.78 221.162 123.5 218.762 120.94C216.402 118.38 215.222 114.32 215.222 108.76C215.222 103.2 216.442 99.14 218.882 96.58C221.362 93.98 224.602 92.68 228.602 92.68C237.482 92.68 241.922 98.02 241.922 108.7ZM233.762 108.64C233.762 104.96 233.322 102.46 232.442 101.14C231.562 99.82 230.262 99.16 228.542 99.16C226.862 99.16 225.562 99.82 224.642 101.14C223.762 102.46 223.322 105 223.322 108.76C223.322 115.16 225.062 118.36 228.542 118.36C230.182 118.36 231.462 117.66 232.382 116.26C233.302 114.82 233.762 112.28 233.762 108.64ZM264.647 92.68C268.127 92.68 270.487 93.58 271.727 95.38C273.007 97.14 273.647 99.66 273.647 102.94V124H265.247V104.44C265.247 102.88 264.987 101.68 264.467 100.84C263.987 99.96 262.787 99.52 260.867 99.52C258.947 99.52 257.207 100.26 255.647 101.74V124H247.067V93.22H254.147L254.867 96.64C256.027 95.56 257.487 94.64 259.247 93.88C261.047 93.08 262.847 92.68 264.647 92.68ZM316.873 90.82H300.313V99.88H315.433V106.6H300.313V124H291.613V83.92H316.873V90.82ZM336.429 99.4C333.149 99.4 330.849 100.34 329.529 102.22V124H321.129V93.22H328.089L328.749 97.12C331.069 94.08 334.029 92.56 337.629 92.56C338.629 92.56 339.549 92.66 340.389 92.86L339.009 99.76C338.129 99.52 337.269 99.4 336.429 99.4ZM349.469 109.48C349.549 115.48 352.189 118.48 357.389 118.48C359.829 118.48 362.249 118.02 364.649 117.1L366.089 122.8C363.009 124.12 359.589 124.78 355.829 124.78C346.349 124.78 341.609 119.2 341.609 108.04C341.609 103.64 342.789 99.98 345.149 97.06C347.509 94.14 350.909 92.68 355.349 92.68C358.909 92.68 361.649 93.64 363.569 95.56C365.529 97.44 366.509 100.08 366.509 103.48C366.509 105.48 366.249 107.48 365.729 109.48H349.469ZM359.789 104.92V104.56C359.789 100.6 358.389 98.62 355.589 98.62C352.229 98.62 350.209 100.72 349.529 104.92H359.789ZM382.677 99.16C379.957 99.16 378.597 100.06 378.597 101.86C378.597 102.82 379.057 103.64 379.977 104.32C380.897 105 381.997 105.6 383.277 106.12C384.597 106.6 385.897 107.16 387.177 107.8C388.497 108.4 389.617 109.28 390.537 110.44C391.457 111.6 391.917 113.02 391.917 114.7C391.917 117.7 390.897 120.14 388.857 122.02C386.817 123.86 383.817 124.78 379.857 124.78C378.057 124.78 376.157 124.58 374.157 124.18C372.197 123.78 370.757 123.32 369.837 122.8L371.877 116.8C374.997 117.84 377.797 118.36 380.277 118.36C382.797 118.36 384.057 117.38 384.057 115.42C384.057 114.58 383.597 113.82 382.677 113.14C381.757 112.46 380.637 111.84 379.317 111.28C378.037 110.68 376.737 110.04 375.417 109.36C374.137 108.68 373.037 107.72 372.117 106.48C371.197 105.24 370.737 103.8 370.737 102.16C370.737 99.08 371.757 96.72 373.797 95.08C375.837 93.44 378.757 92.62 382.557 92.62C386.357 92.62 389.337 93.24 391.497 94.48L389.517 100.42C386.757 99.58 384.477 99.16 382.677 99.16ZM399.894 114.1V99.04L394.494 98.68V93.76L400.074 93.28V86.26L408.474 85.54V93.22H417.234L416.754 99.04H408.414V114.88C408.414 116.04 408.594 116.88 408.954 117.4C409.314 117.88 410.074 118.12 411.234 118.12C412.394 118.12 413.694 117.94 415.134 117.58L416.394 123.52C414.434 124.36 412.434 124.78 410.394 124.78C408.394 124.78 406.874 124.66 405.834 124.42C404.834 124.18 403.994 123.9 403.314 123.58C402.674 123.26 402.114 122.8 401.634 122.2C401.194 121.56 400.854 121 400.614 120.52C400.414 120.04 400.254 119.36 400.134 118.48C399.974 117.28 399.894 115.82 399.894 114.1ZM446.297 108.7C446.297 114.26 445.057 118.34 442.577 120.94C440.097 123.5 436.837 124.78 432.797 124.78C428.757 124.78 425.537 123.5 423.137 120.94C420.777 118.38 419.597 114.32 419.597 108.76C419.597 103.2 420.817 99.14 423.257 96.58C425.737 93.98 428.977 92.68 432.977 92.68C441.857 92.68 446.297 98.02 446.297 108.7ZM438.137 108.64C438.137 104.96 437.697 102.46 436.817 101.14C435.937 99.82 434.637 99.16 432.917 99.16C431.237 99.16 429.937 99.82 429.017 101.14C428.137 102.46 427.697 105 427.697 108.76C427.697 115.16 429.437 118.36 432.917 118.36C434.557 118.36 435.837 117.66 436.757 116.26C437.677 114.82 438.137 112.28 438.137 108.64ZM469.022 92.68C472.502 92.68 474.862 93.58 476.102 95.38C477.382 97.14 478.022 99.66 478.022 102.94V124H469.622V104.44C469.622 102.88 469.362 101.68 468.842 100.84C468.362 99.96 467.162 99.52 465.242 99.52C463.322 99.52 461.582 100.26 460.022 101.74V124H451.442V93.22H458.522L459.242 96.64C460.402 95.56 461.862 94.64 463.622 93.88C465.422 93.08 467.222 92.68 469.022 92.68Z" fill="#F7E89C"/>
<path d="M507.707 150.707C508.098 150.317 508.098 149.683 507.707 149.293L501.343 142.929C500.953 142.538 500.319 142.538 499.929 142.929C499.538 143.319 499.538 143.953 499.929 144.343L505.586 150L499.929 155.657C499.538 156.047 499.538 156.681 499.929 157.071C500.319 157.462 500.953 157.462 501.343 157.071L507.707 150.707ZM89 151H507V149H89V151Z" fill="#F7E89C"/>
<path d="M43.2929 149.293C42.9024 149.683 42.9024 150.317 43.2929 150.707L49.6569 157.071C50.0474 157.462 50.6805 157.462 51.0711 157.071C51.4616 156.681 51.4616 156.047 51.0711 155.657L45.4142 150L51.0711 144.343C51.4616 143.953 51.4616 143.319 51.0711 142.929C50.6805 142.538 50.0474 142.538 49.6569 142.929L43.2929 149.293ZM165 149L44 149L44 151L165 151L165 149Z" fill="#F7E89C"/>
<path d="M166.234 201.809V193.859C166.234 190.422 166.335 187.299 166.535 184.492C166.764 181.656 167.251 179.035 167.996 176.629C165.733 176.285 163.413 175.884 161.035 175.426C158.658 174.939 156.323 174.48 154.031 174.051C151.768 173.621 149.605 173.263 147.543 172.977C145.509 172.661 143.676 172.504 142.043 172.504C139.837 172.504 138.004 172.69 136.543 173.062C135.082 173.406 133.908 173.879 133.02 174.48C132.132 175.082 131.501 175.784 131.129 176.586C130.785 177.359 130.613 178.19 130.613 179.078C130.613 179.966 130.814 180.783 131.215 181.527C131.645 182.272 132.246 182.931 133.02 183.504C133.793 184.048 134.71 184.478 135.77 184.793C136.858 185.108 138.061 185.266 139.379 185.266C140.84 185.266 142.129 185.108 143.246 184.793C144.392 184.449 145.366 184.077 146.168 183.676C147.113 183.217 147.944 182.688 148.66 182.086L149.52 183.934C148.632 184.592 147.658 185.18 146.598 185.695C145.681 186.154 144.607 186.569 143.375 186.941C142.172 187.285 140.84 187.457 139.379 187.457C137.46 187.457 135.755 187.199 134.266 186.684C132.805 186.168 131.573 185.48 130.57 184.621C129.568 183.733 128.809 182.702 128.293 181.527C127.777 180.353 127.52 179.107 127.52 177.789C127.52 176.385 127.763 175.025 128.25 173.707C128.708 172.389 129.496 171.215 130.613 170.184C131.702 169.152 133.148 168.336 134.953 167.734C136.758 167.104 138.978 166.789 141.613 166.789C144.048 166.789 146.483 166.99 148.918 167.391C151.382 167.763 153.802 168.236 156.18 168.809C158.586 169.353 160.921 169.954 163.184 170.613C165.475 171.243 167.667 171.816 169.758 172.332C170.99 170.069 172.522 168.264 174.355 166.918C176.189 165.543 178.18 164.855 180.328 164.855C181.245 164.855 182.061 165.013 182.777 165.328C183.493 165.615 184.095 166.001 184.582 166.488C185.069 166.975 185.427 167.548 185.656 168.207C185.914 168.837 186.043 169.51 186.043 170.227C186.043 171.43 185.757 172.475 185.184 173.363C184.639 174.223 183.88 174.953 182.906 175.555C181.932 176.128 180.786 176.557 179.469 176.844C178.151 177.102 176.733 177.23 175.215 177.23C174.871 177.23 174.513 177.23 174.141 177.23C173.797 177.23 173.453 177.202 173.109 177.145C172.88 178.577 172.694 180.181 172.551 181.957C172.436 183.704 172.379 185.681 172.379 187.887V201.809H178.137L177.234 204.43H172.379V215C172.379 217.406 172.35 219.512 172.293 221.316C172.236 223.092 172.078 224.682 171.82 226.086C171.562 227.461 171.176 228.707 170.66 229.824C170.145 230.913 169.428 231.987 168.512 233.047C166.936 234.852 164.745 236.327 161.938 237.473C159.13 238.618 155.721 239.191 151.711 239.191C149.247 239.191 146.898 238.848 144.664 238.16C142.43 237.473 140.467 236.513 138.777 235.281C137.087 234.049 135.741 232.574 134.738 230.855C133.736 229.137 133.234 227.232 133.234 225.141C133.234 223.594 133.478 222.204 133.965 220.973C134.48 219.741 135.139 218.652 135.941 217.707C136.743 216.733 137.617 215.902 138.562 215.215C139.536 214.527 140.482 213.954 141.398 213.496C142.315 213.038 143.146 212.68 143.891 212.422C144.635 212.164 145.194 211.992 145.566 211.906L146.426 213.668C145.767 214.012 145.022 214.484 144.191 215.086C143.389 215.659 142.63 216.404 141.914 217.32C141.198 218.208 140.596 219.297 140.109 220.586C139.622 221.875 139.379 223.393 139.379 225.141C139.379 227.003 139.694 228.678 140.324 230.168C140.954 231.629 141.828 232.875 142.945 233.906C144.091 234.909 145.438 235.682 146.984 236.227C148.56 236.742 150.279 237 152.141 237C154.232 237 156.137 236.714 157.855 236.141C159.603 235.568 161.092 234.608 162.324 233.262C163.556 231.915 164.516 230.125 165.203 227.891C165.891 225.656 166.234 222.878 166.234 219.555V204.43H157.898L158.758 201.809H166.234ZM180.328 167.219C179.039 167.219 177.85 167.691 176.762 168.637C175.673 169.553 174.771 171.129 174.055 173.363C174.943 173.507 175.802 173.621 176.633 173.707C177.464 173.793 178.251 173.836 178.996 173.836C179.77 173.836 180.428 173.736 180.973 173.535C181.546 173.306 182.004 173.02 182.348 172.676C182.691 172.332 182.949 171.945 183.121 171.516C183.293 171.086 183.379 170.656 183.379 170.227C183.379 169.396 183.092 168.694 182.52 168.121C181.947 167.52 181.216 167.219 180.328 167.219ZM182.583 218.523L183.013 217.621C183.443 216.762 183.829 215.874 184.173 214.957C184.545 214.04 184.86 213.181 185.118 212.379C185.376 211.548 185.577 210.818 185.72 210.188C185.863 209.529 185.963 209.027 186.021 208.684C185.276 208.598 184.56 208.411 183.872 208.125C183.185 207.839 182.583 207.452 182.068 206.965C181.552 206.478 181.151 205.905 180.864 205.246C180.549 204.587 180.392 203.842 180.392 203.012C180.392 202.353 180.506 201.766 180.735 201.25C180.965 200.734 181.28 200.305 181.681 199.961C182.053 199.617 182.483 199.359 182.97 199.188C183.428 198.987 183.915 198.887 184.431 198.887C185.118 198.887 185.72 199.03 186.235 199.316C186.751 199.603 187.181 199.99 187.525 200.477C187.868 200.935 188.126 201.479 188.298 202.109C188.47 202.711 188.556 203.341 188.556 204C189.358 204 190.217 203.885 191.134 203.656C192.079 203.427 193.025 203.184 193.97 202.926C194.915 202.639 195.846 202.382 196.763 202.152C197.679 201.923 198.525 201.809 199.298 201.809C199.957 201.809 200.487 201.952 200.888 202.238C201.289 202.496 201.489 202.94 201.489 203.57C201.489 204.029 201.346 204.788 201.06 205.848C200.802 206.908 200.472 208.139 200.071 209.543C199.67 210.947 199.226 212.479 198.739 214.141C198.281 215.773 197.851 217.435 197.45 219.125C197.049 220.786 196.706 222.405 196.419 223.98C196.161 225.556 196.032 226.96 196.032 228.191C196.032 229.738 196.204 230.784 196.548 231.328C196.892 231.872 197.508 232.145 198.396 232.145C198.768 232.145 199.226 231.987 199.771 231.672C200.344 231.328 201.031 230.684 201.833 229.738C202.635 228.764 203.581 227.389 204.669 225.613C205.786 223.809 207.075 221.445 208.536 218.523L208.966 217.621L210.728 218.953L210.298 219.855C208.579 223.293 207.047 226.115 205.7 228.32C204.354 230.526 203.108 232.273 201.962 233.562C200.845 234.852 199.785 235.754 198.782 236.27C197.78 236.757 196.777 237 195.775 237C194.084 237 192.709 236.355 191.65 235.066C190.59 233.777 190.06 231.786 190.06 229.094C190.06 227.633 190.26 226.115 190.661 224.539C191.062 222.964 191.564 221.402 192.165 219.855C192.767 218.28 193.44 216.733 194.185 215.215C194.929 213.697 195.631 212.264 196.29 210.918C196.978 209.543 197.594 208.268 198.138 207.094C198.682 205.919 199.069 204.888 199.298 204L199.04 203.742C198.582 203.742 197.966 203.986 197.193 204.473C196.419 204.96 195.545 205.518 194.571 206.148C193.626 206.75 192.609 207.323 191.521 207.867C190.432 208.411 189.329 208.741 188.212 208.855C188.155 209.257 188.026 209.844 187.825 210.617C187.653 211.391 187.41 212.25 187.095 213.195C186.78 214.141 186.422 215.115 186.021 216.117C185.62 217.12 185.204 218.065 184.775 218.953L184.345 219.855L182.583 218.523ZM184.689 201.293C184.431 201.293 184.216 201.379 184.044 201.551C183.872 201.723 183.786 201.923 183.786 202.152C183.786 202.496 183.872 202.797 184.044 203.055C184.216 203.284 184.431 203.484 184.689 203.656C184.946 203.799 185.204 203.914 185.462 204C185.748 204.057 185.992 204.086 186.193 204.086C186.193 203.284 186.064 202.625 185.806 202.109C185.548 201.565 185.176 201.293 184.689 201.293ZM245.854 218.953L245.381 219.855C244.407 221.803 243.104 223.365 241.471 224.539C239.867 225.685 238.119 226.43 236.229 226.773C235.713 228.234 235.04 229.595 234.209 230.855C233.407 232.087 232.476 233.161 231.416 234.078C230.385 234.995 229.211 235.711 227.893 236.227C226.604 236.742 225.2 237 223.682 237C221.476 237 219.485 236.542 217.709 235.625C215.962 234.68 214.472 233.419 213.24 231.844C212.009 230.24 211.063 228.378 210.405 226.258C209.746 224.109 209.416 221.818 209.416 219.383C209.416 217.263 209.66 215.344 210.147 213.625C210.634 211.878 211.25 210.331 211.994 208.984C212.739 207.609 213.57 206.421 214.487 205.418C215.403 204.387 216.306 203.542 217.194 202.883C218.082 202.224 218.884 201.737 219.6 201.422C220.345 201.078 220.903 200.906 221.276 200.906L221.834 202.41C220.66 203.27 219.614 204.473 218.698 206.02C217.895 207.337 217.165 209.085 216.506 211.262C215.876 213.439 215.561 216.146 215.561 219.383C215.561 221.359 215.747 223.279 216.119 225.141C216.492 227.003 217.036 228.65 217.752 230.082C218.468 231.514 219.342 232.66 220.373 233.52C221.433 234.379 222.622 234.809 223.94 234.809C225.744 234.809 227.234 234.092 228.408 232.66C229.612 231.199 230.5 229.208 231.073 226.688C229.583 226.372 228.165 225.785 226.819 224.926C225.472 224.066 224.283 223.007 223.252 221.746C222.221 220.457 221.39 218.982 220.76 217.32C220.158 215.659 219.858 213.854 219.858 211.906C219.858 210.302 220.058 208.898 220.459 207.695C220.889 206.464 221.448 205.447 222.135 204.645C222.823 203.814 223.61 203.198 224.498 202.797C225.415 202.367 226.375 202.152 227.377 202.152C228.552 202.152 229.755 202.496 230.987 203.184C232.218 203.842 233.336 204.845 234.338 206.191C235.341 207.509 236.157 209.171 236.787 211.176C237.418 213.181 237.733 215.516 237.733 218.18C237.733 219.182 237.675 220.171 237.561 221.145C237.446 222.118 237.274 223.064 237.045 223.98C238.42 223.579 239.666 222.935 240.783 222.047C241.929 221.159 242.875 219.984 243.619 218.523L244.092 217.621L245.854 218.953ZM222.694 211.562C222.694 213.253 222.923 214.814 223.381 216.246C223.868 217.65 224.513 218.896 225.315 219.984C226.117 221.044 227.048 221.932 228.108 222.648C229.168 223.365 230.299 223.866 231.502 224.152C231.645 223.35 231.731 222.52 231.76 221.66C231.817 220.772 231.846 219.87 231.846 218.953C231.846 216.919 231.688 215.086 231.373 213.453C231.058 211.792 230.643 210.388 230.127 209.242C229.612 208.068 229.01 207.165 228.323 206.535C227.635 205.905 226.933 205.59 226.217 205.59C225.243 205.59 224.412 206.12 223.725 207.18C223.037 208.211 222.694 209.672 222.694 211.562ZM261.558 204.773C260.756 204.773 259.854 205.132 258.851 205.848C257.877 206.564 256.889 207.495 255.886 208.641C254.883 209.758 253.91 211.018 252.964 212.422C252.048 213.826 251.245 215.215 250.558 216.59C250.472 219.111 250.386 221.861 250.3 224.84C250.243 227.819 250.214 230.999 250.214 234.379C250.214 234.809 250.014 235.195 249.613 235.539C249.24 235.854 248.796 236.126 248.281 236.355C247.765 236.556 247.235 236.714 246.691 236.828C246.147 236.943 245.702 237 245.359 237C244.929 237 244.528 236.871 244.156 236.613C243.783 236.355 243.597 235.783 243.597 234.895C243.597 234.465 243.64 233.935 243.726 233.305C243.812 232.646 243.926 231.944 244.07 231.199C244.184 230.454 244.327 229.695 244.499 228.922C244.643 228.12 244.786 227.375 244.929 226.688V205.676C244.929 205.103 244.943 204.659 244.972 204.344C244.972 204 245.015 203.742 245.101 203.57C245.273 203.169 245.574 202.854 246.003 202.625C246.433 202.396 246.891 202.224 247.378 202.109C247.865 201.966 248.338 201.88 248.796 201.852C249.255 201.823 249.613 201.809 249.87 201.809C250.357 201.809 250.687 201.938 250.859 202.195C251.059 202.453 251.16 202.911 251.16 203.57C251.16 203.484 251.088 204.186 250.945 205.676C250.83 207.165 250.73 209.299 250.644 212.078C251.503 210.732 252.434 209.443 253.437 208.211C254.439 206.979 255.485 205.891 256.574 204.945C257.662 204 258.779 203.241 259.925 202.668C261.1 202.095 262.288 201.809 263.492 201.809C265.64 201.809 267.216 202.496 268.218 203.871C269.221 205.217 269.722 207.051 269.722 209.371C269.722 210.832 269.622 212.465 269.421 214.27C269.249 216.046 269.035 217.865 268.777 219.727C268.548 221.56 268.333 223.365 268.132 225.141C267.96 226.888 267.874 228.492 267.874 229.953C267.874 231.844 268.462 232.789 269.636 232.789C270.008 232.789 270.438 232.603 270.925 232.23C271.441 231.829 272.071 231.099 272.816 230.039C273.589 228.979 274.506 227.533 275.566 225.699C276.626 223.837 277.886 221.445 279.347 218.523L279.777 217.621L281.538 218.953L281.109 219.855C279.39 223.293 277.857 226.115 276.511 228.32C275.193 230.526 273.99 232.273 272.902 233.562C271.813 234.852 270.796 235.754 269.851 236.27C268.906 236.757 267.96 237 267.015 237C266.413 237 265.812 236.914 265.21 236.742C264.609 236.57 264.079 236.27 263.62 235.84C263.162 235.41 262.79 234.837 262.503 234.121C262.217 233.376 262.074 232.431 262.074 231.285C262.074 229.566 262.188 227.633 262.417 225.484C262.647 223.336 262.904 221.188 263.191 219.039C263.477 216.891 263.735 214.871 263.964 212.98C264.193 211.061 264.308 209.5 264.308 208.297C264.308 207.237 264.079 206.392 263.62 205.762C263.162 205.103 262.475 204.773 261.558 204.773ZM280.528 222.906C280.528 219.87 280.642 216.819 280.872 213.754C281.101 210.689 281.402 207.581 281.774 204.43H277.864L278.336 201.809H282.118C282.519 198.887 282.92 195.965 283.321 193.043C283.75 190.092 284.137 187.142 284.481 184.191H288.864C288.806 184.822 288.721 185.738 288.606 186.941C288.52 188.116 288.405 189.491 288.262 191.066C288.148 192.613 288.033 194.318 287.918 196.18C287.804 198.013 287.689 199.889 287.575 201.809H295.911L295.481 204.43H287.403C287.288 206.062 287.188 207.667 287.102 209.242C287.016 210.818 286.93 212.322 286.844 213.754C286.787 215.158 286.744 216.461 286.715 217.664C286.687 218.839 286.672 219.855 286.672 220.715C286.672 222.892 286.73 224.711 286.844 226.172C286.987 227.633 287.188 228.807 287.446 229.695C287.732 230.583 288.076 231.214 288.477 231.586C288.907 231.958 289.394 232.145 289.938 232.145C290.654 232.145 291.442 231.786 292.301 231.07C293.189 230.326 294.106 229.337 295.051 228.105C295.997 226.874 296.956 225.441 297.93 223.809C298.904 222.147 299.849 220.385 300.766 218.523L301.196 217.621L302.958 218.953L302.528 219.855C301.21 222.52 299.892 224.911 298.575 227.031C297.286 229.151 296.011 230.956 294.75 232.445C293.49 233.906 292.258 235.038 291.055 235.84C289.852 236.613 288.692 237 287.575 237C286.458 237 285.455 236.742 284.567 236.227C283.708 235.711 282.977 234.895 282.375 233.777C281.774 232.632 281.316 231.171 281 229.395C280.685 227.618 280.528 225.456 280.528 222.906ZM314.795 232.145C315.797 232.145 316.814 231.887 317.845 231.371C318.905 230.855 319.965 230.053 321.025 228.965C322.114 227.876 323.231 226.473 324.377 224.754C325.522 223.007 326.697 220.93 327.9 218.523L328.33 217.621L330.091 218.953L329.662 219.855C328.115 222.921 326.568 225.542 325.021 227.719C323.503 229.896 321.999 231.672 320.509 233.047C319.048 234.422 317.602 235.424 316.17 236.055C314.737 236.685 313.362 237 312.045 237C310.183 237 308.521 236.613 307.06 235.84C305.599 235.066 304.367 234.021 303.365 232.703C302.362 231.357 301.603 229.81 301.087 228.062C300.543 226.286 300.271 224.424 300.271 222.477C300.271 219.383 300.701 216.576 301.56 214.055C302.391 211.505 303.508 209.328 304.912 207.523C306.344 205.719 307.962 204.315 309.767 203.312C311.572 202.31 313.448 201.809 315.396 201.809C317.373 201.809 318.877 202.31 319.908 203.312C320.968 204.315 321.498 205.576 321.498 207.094C321.498 208.555 321.082 209.93 320.252 211.219C319.421 212.479 318.289 213.725 316.857 214.957C315.453 216.16 313.821 217.363 311.959 218.566C310.097 219.741 308.134 220.958 306.072 222.219C306.272 223.708 306.616 225.069 307.103 226.301C307.59 227.504 308.206 228.549 308.951 229.438C309.696 230.297 310.555 230.97 311.529 231.457C312.503 231.915 313.591 232.145 314.795 232.145ZM316.127 208.383C316.127 207.237 315.811 206.335 315.181 205.676C314.58 205.017 313.835 204.688 312.947 204.688C312.202 204.688 311.414 204.96 310.584 205.504C309.753 206.02 308.994 206.865 308.306 208.039C307.619 209.185 307.046 210.66 306.587 212.465C306.129 214.27 305.9 216.461 305.9 219.039V220.027C306.874 219.512 307.948 218.839 309.123 218.008C310.326 217.148 311.443 216.203 312.474 215.172C313.505 214.141 314.365 213.052 315.052 211.906C315.768 210.732 316.127 209.557 316.127 208.383ZM345.753 204.773C344.951 204.773 344.048 205.132 343.046 205.848C342.072 206.564 341.083 207.495 340.081 208.641C339.078 209.758 338.104 211.018 337.159 212.422C336.242 213.826 335.44 215.215 334.753 216.59C334.667 219.111 334.581 221.861 334.495 224.84C334.438 227.819 334.409 230.999 334.409 234.379C334.409 234.809 334.208 235.195 333.807 235.539C333.435 235.854 332.991 236.126 332.475 236.355C331.96 236.556 331.43 236.714 330.885 236.828C330.341 236.943 329.897 237 329.553 237C329.124 237 328.723 236.871 328.35 236.613C327.978 236.355 327.792 235.783 327.792 234.895C327.792 234.465 327.835 233.935 327.921 233.305C328.007 232.646 328.121 231.944 328.264 231.199C328.379 230.454 328.522 229.695 328.694 228.922C328.837 228.12 328.981 227.375 329.124 226.688V205.676C329.124 205.103 329.138 204.659 329.167 204.344C329.167 204 329.21 203.742 329.296 203.57C329.467 203.169 329.768 202.854 330.198 202.625C330.628 202.396 331.086 202.224 331.573 202.109C332.06 201.966 332.533 201.88 332.991 201.852C333.449 201.823 333.807 201.809 334.065 201.809C334.552 201.809 334.882 201.938 335.053 202.195C335.254 202.453 335.354 202.911 335.354 203.57C335.354 203.484 335.283 204.186 335.139 205.676C335.025 207.165 334.925 209.299 334.839 212.078C335.698 210.732 336.629 209.443 337.632 208.211C338.634 206.979 339.68 205.891 340.768 204.945C341.857 204 342.974 203.241 344.12 202.668C345.294 202.095 346.483 201.809 347.686 201.809C349.835 201.809 351.41 202.496 352.413 203.871C353.415 205.217 353.917 207.051 353.917 209.371C353.917 210.832 353.816 212.465 353.616 214.27C353.444 216.046 353.229 217.865 352.971 219.727C352.742 221.56 352.527 223.365 352.327 225.141C352.155 226.888 352.069 228.492 352.069 229.953C352.069 231.844 352.656 232.789 353.831 232.789C354.203 232.789 354.633 232.603 355.12 232.23C355.635 231.829 356.266 231.099 357.01 230.039C357.784 228.979 358.701 227.533 359.76 225.699C360.82 223.837 362.081 221.445 363.542 218.523L363.971 217.621L365.733 218.953L365.303 219.855C363.585 223.293 362.052 226.115 360.706 228.32C359.388 230.526 358.185 232.273 357.096 233.562C356.008 234.852 354.991 235.754 354.046 236.27C353.1 236.757 352.155 237 351.21 237C350.608 237 350.007 236.914 349.405 236.742C348.803 236.57 348.273 236.27 347.815 235.84C347.357 235.41 346.984 234.837 346.698 234.121C346.412 233.376 346.268 232.431 346.268 231.285C346.268 229.566 346.383 227.633 346.612 225.484C346.841 223.336 347.099 221.188 347.385 219.039C347.672 216.891 347.93 214.871 348.159 212.98C348.388 211.061 348.503 209.5 348.503 208.297C348.503 207.237 348.273 206.392 347.815 205.762C347.357 205.103 346.669 204.773 345.753 204.773ZM373.617 237C371.87 237 370.351 236.628 369.062 235.883C367.802 235.138 366.756 234.135 365.926 232.875C365.095 231.586 364.479 230.111 364.078 228.449C363.677 226.788 363.476 225.026 363.476 223.164C363.476 221.531 363.634 219.87 363.949 218.18C364.264 216.49 364.708 214.857 365.281 213.281C365.883 211.677 366.627 210.188 367.515 208.812C368.403 207.409 369.42 206.191 370.566 205.16C371.712 204.129 372.987 203.312 374.39 202.711C375.823 202.109 377.355 201.809 378.988 201.809C380.85 201.809 382.426 202.224 383.715 203.055C385.032 203.885 386.092 204.902 386.894 206.105C386.923 200.691 387.195 195.908 387.711 191.754C388.226 187.6 388.943 184.12 389.859 181.312C390.805 178.505 391.922 176.385 393.211 174.953C394.5 173.492 395.918 172.762 397.465 172.762C398.009 172.762 398.496 172.833 398.926 172.977C399.384 173.091 399.756 173.32 400.043 173.664C400.358 174.008 400.587 174.48 400.73 175.082C400.902 175.655 400.988 176.4 400.988 177.316C400.988 179.207 400.802 181.384 400.43 183.848C400.057 186.283 399.527 188.947 398.84 191.84C398.152 194.704 397.307 197.77 396.305 201.035C395.331 204.272 394.242 207.638 393.039 211.133C393.068 214.198 393.111 216.848 393.168 219.082C393.225 221.316 393.297 223.207 393.383 224.754C393.497 226.301 393.626 227.561 393.769 228.535C393.941 229.509 394.127 230.268 394.328 230.812C394.557 231.328 394.815 231.686 395.101 231.887C395.417 232.059 395.76 232.145 396.133 232.145C396.792 232.145 397.45 231.858 398.109 231.285C398.797 230.684 399.527 229.81 400.301 228.664C401.074 227.49 401.905 226.057 402.793 224.367C403.709 222.677 404.712 220.729 405.801 218.523L406.273 217.621L408.035 218.953L407.562 219.855C405.901 223.207 404.44 225.986 403.18 228.191C401.919 230.368 400.759 232.116 399.699 233.434C398.668 234.751 397.68 235.682 396.734 236.227C395.789 236.742 394.801 237 393.769 237C392.767 237 391.893 236.757 391.148 236.27C390.432 235.754 389.816 234.966 389.301 233.906C388.785 232.818 388.37 231.443 388.055 229.781C387.739 228.091 387.496 226.072 387.324 223.723C386.321 225.728 385.29 227.547 384.23 229.18C383.17 230.812 382.068 232.216 380.922 233.391C379.805 234.536 378.63 235.424 377.398 236.055C376.167 236.685 374.906 237 373.617 237ZM379.848 204C378.272 204 376.897 204.487 375.723 205.461C374.548 206.406 373.574 207.652 372.801 209.199C372.027 210.717 371.454 212.436 371.082 214.355C370.709 216.275 370.523 218.194 370.523 220.113C370.523 221.689 370.638 223.207 370.867 224.668C371.125 226.1 371.497 227.375 371.984 228.492C372.5 229.609 373.116 230.497 373.832 231.156C374.548 231.815 375.379 232.145 376.324 232.145C377.241 232.145 378.129 231.915 378.988 231.457C379.876 230.999 380.75 230.268 381.609 229.266C382.469 228.234 383.342 226.917 384.23 225.312C385.118 223.68 386.064 221.703 387.066 219.383C387.009 218.008 386.966 216.547 386.937 215C386.909 213.424 386.894 211.749 386.894 209.973C386.264 208.111 385.305 206.65 384.015 205.59C382.755 204.53 381.366 204 379.848 204ZM397.894 178.906C397.894 177.589 397.737 176.672 397.422 176.156C397.135 175.641 396.792 175.383 396.39 175.383C395.703 175.383 395.144 176.056 394.715 177.402C394.285 178.72 393.941 180.51 393.683 182.773C393.454 185.036 393.282 187.658 393.168 190.637C393.082 193.616 393.039 196.753 393.039 200.047V204.773C393.927 201.88 394.686 199.273 395.316 196.953C395.946 194.633 396.448 192.47 396.82 190.465C397.193 188.46 397.465 186.526 397.637 184.664C397.808 182.802 397.894 180.883 397.894 178.906Z" fill="#F7E89C"/>
<defs>
<linearGradient id="paint0_linear" x1="270.5" y1="-6" x2="270.5" y2="329" gradientUnits="userSpaceOnUse">
<stop offset="0.740231" stop-color="#583B3B"/>
<stop offset="0.740331" stop-color="white" stop-opacity="0"/>
</linearGradient>
</defs>
</svg>
